<svg width="230" height="30" viewBox="0 0 230 30" fill="none" xmlns="http://www.w3.org/2000/svg">
<path d="M44.7191 20.4098C44.7191 19.9943 44.522 19.632 44.1277 19.323C43.7335 19.014 43.2221 18.7583 42.5934 18.5558C41.9755 18.3534 41.2829 18.1403 40.5157 17.9166C39.7592 17.6821 39.0027 17.3891 38.2463 17.0375C37.5004 16.6859 36.8132 16.265 36.1845 15.7749C35.5665 15.2848 35.0604 14.6242 34.6662 13.7931C34.272 12.962 34.0749 12.0031 34.0749 10.9163C34.0749 9.04104 34.8846 7.40019 36.5042 5.99375C38.1344 4.57665 40.2174 3.8681 42.7533 3.8681C43.7974 3.8681 44.783 3.9853 45.71 4.21971C46.637 4.44346 47.3935 4.71516 47.9795 5.03481C48.5762 5.35445 49.0982 5.6741 49.5457 5.99375C49.9933 6.30274 50.3022 6.57977 50.4727 6.82483L50.7764 7.14447L47.1644 10.9163C47.0578 10.7884 46.898 10.6286 46.6849 10.4368C46.4825 10.2344 46.0509 9.96269 45.3903 9.62173C44.7404 9.28078 44.0798 9.1103 43.4085 9.1103C42.7053 9.1103 42.1193 9.30741 41.6505 9.70164C41.1817 10.0959 40.9473 10.554 40.9473 11.0761C40.9473 11.4917 41.1444 11.8539 41.5386 12.1629C41.9328 12.4613 42.4389 12.717 43.0569 12.9301C43.6856 13.1325 44.3728 13.3509 45.1186 13.5853C45.8751 13.8091 46.6316 14.0968 47.3881 14.4484C48.1553 14.8 48.8479 15.2209 49.4658 15.711C50.0945 16.2011 50.6059 16.8617 51.0001 17.6928C51.3944 18.5239 51.5915 19.4828 51.5915 20.5696C51.5915 22.6899 50.7551 24.4746 49.0823 25.9237C47.4094 27.3728 45.1879 28.0973 42.4176 28.0973C41.2882 28.0973 40.1961 27.9588 39.1413 27.6818C38.0971 27.4154 37.234 27.0904 36.5521 26.7068C35.8809 26.3233 35.2842 25.9397 34.7621 25.5561C34.24 25.1725 33.8564 24.8422 33.6114 24.5652L33.2598 24.1656L36.8558 20.4098C36.8984 20.4737 36.973 20.559 37.0795 20.6655C37.1967 20.7721 37.4152 20.9692 37.7348 21.2569C38.0651 21.5445 38.4114 21.8003 38.7737 22.024C39.1359 22.2371 39.5888 22.4289 40.1322 22.5994C40.6756 22.7699 41.219 22.8551 41.7624 22.8551C42.6361 22.8551 43.3446 22.6154 43.888 22.1359C44.4421 21.6564 44.7191 21.0811 44.7191 20.4098ZM66.7996 4.52337H73.5122L65.3292 19.2591V27.442H59.1121V19.2591L50.9292 4.52337H57.6418L62.2287 13.3616L66.7996 4.52337ZM90.3825 4.52337H96.5996V27.442H91.2295L81.3844 14.6721V27.442H75.1673V4.52337H80.5693L90.3825 17.2932V4.52337ZM107.093 22.1998H118.872V27.442H100.876V4.52337H118.552V9.76557H107.093V13.3616H115.931V18.2841H107.093V22.1998ZM121.822 27.442V4.52337H132.626C135.044 4.52337 137.037 5.27987 138.603 6.79286C140.18 8.2952 140.968 10.1598 140.968 12.3867C140.968 13.303 140.83 14.1607 140.553 14.9598C140.287 15.7483 139.962 16.3929 139.578 16.8937C139.194 17.3838 138.811 17.8047 138.427 18.1563C138.044 18.4972 137.724 18.7317 137.468 18.8595L137.037 19.0992L141.784 27.442H135.247L131.315 20.234H128.039V27.442H121.822ZM134.064 14.0169C134.522 13.58 134.751 13.0366 134.751 12.3867C134.751 11.7261 134.522 11.1827 134.064 10.7565C133.606 10.3196 133.015 10.1012 132.29 10.1012H128.039V14.6721H132.29C133.015 14.6721 133.606 14.4537 134.064 14.0169ZM155.857 28.0973C152.298 28.0973 149.278 26.9093 146.795 24.5332C144.323 22.1465 143.087 19.2964 143.087 15.9827C143.087 12.669 144.323 9.82418 146.795 7.44814C149.278 5.06145 152.298 3.8681 155.857 3.8681C157.082 3.8681 158.249 4.02792 159.357 4.34757C160.465 4.66722 161.376 5.05079 162.09 5.4983C162.815 5.9458 163.443 6.39331 163.976 6.84081C164.519 7.28832 164.908 7.67189 165.143 7.99154L165.51 8.45502L161.738 12.3867C161.674 12.3014 161.589 12.1949 161.483 12.067C161.376 11.9285 161.131 11.6941 160.748 11.3638C160.364 11.0228 159.964 10.7245 159.549 10.4688C159.133 10.2024 158.585 9.96802 157.903 9.76557C157.231 9.55248 156.549 9.44593 155.857 9.44593C153.982 9.44593 152.421 10.0692 151.174 11.3159C149.927 12.5518 149.304 14.1074 149.304 15.9827C149.304 17.858 149.927 19.4189 151.174 20.6655C152.421 21.9121 153.982 22.5354 155.857 22.5354C156.645 22.5354 157.365 22.4182 158.015 22.1838C158.664 21.9388 159.123 21.6831 159.389 21.4167L159.773 21.0651V18.6038H156.177V14.6721H166.006V23.5104C165.92 23.6382 165.777 23.8087 165.574 24.0218C165.372 24.2242 164.951 24.5918 164.312 25.1246C163.672 25.6467 162.985 26.1102 162.25 26.515C161.515 26.9199 160.572 27.2822 159.421 27.6018C158.27 27.9321 157.082 28.0973 155.857 28.0973ZM182.492 4.52337H189.205L181.022 19.2591V27.442H174.805V19.2591L166.622 4.52337H173.335L177.921 13.3616L182.492 4.52337ZM208.37 17.6289L206.244 10.9163L204.118 17.6289H208.37ZM210 22.5354H202.472L200.842 27.442H194.129L202.808 4.52337H209.68L218.359 27.442H211.646L210 22.5354ZM219.998 27.442V4.52337H226.215V27.442H219.998Z" fill="black"/>
<path d="M15.9673 17.4822L13.3098 14.8245L15.9673 12.1668V6.85132L7.99463 14.8245L15.9673 22.7977V17.4822Z" fill="#FF0040"/>
<path d="M0 1.52136V28.1279H26.6121V1.52136H0V1.52136ZM22.8083 24.3238H3.80382V5.31812H22.8083V24.3238Z" fill="#FF0040"/>
</svg>
